<svg width="351" height="214" viewBox="0 0 351 214" fill="none" xmlns="http://www.w3.org/2000/svg">
<path fill-rule="evenodd" clip-rule="evenodd" d="M55.2986 81.3587L53.2707 83.8415C50.0051 81.2286 46.4974 78.8848 42.8477 76.872L44.4235 74.0864C48.2312 76.1853 51.8905 78.6318 55.2986 81.3587ZM71.4323 101.72L73.9532 99.7318C71.2342 96.3262 68.2088 93.1406 64.9624 90.2625L62.8153 92.645C65.9266 95.4046 68.8269 98.4571 71.4323 101.72ZM87.9318 122.134L85.021 123.493C83.2536 119.713 81.1508 116.07 78.7748 112.663L81.4149 110.834C83.8942 114.387 86.0873 118.189 87.9318 122.134ZM66.6192 204.084C71.1034 204.643 75.7566 203.996 80.0791 202.217L78.8707 199.274C75.0648 200.842 70.9752 201.412 67.045 200.923L66.6192 204.084ZM88.3816 192.068L90.9127 194.004C93.4468 190.748 95.4227 186.694 96.7854 181.959L93.7034 181.107C92.4542 185.448 90.6635 189.135 88.3816 192.068ZM46.5372 189.768C48.266 193.289 50.8863 196.453 54.117 198.914L56.0815 196.381C53.2385 194.214 50.9359 191.438 49.4204 188.351C49.2978 188.101 49.1802 187.847 49.0645 187.586L48.8372 187.052L45.8593 188.257L46.1293 188.892C46.2587 189.186 46.3956 189.479 46.5372 189.768ZM163.938 140.595L165.354 143.442C169.168 141.544 173.023 139.458 176.812 137.241L175.202 134.499C171.476 136.679 167.685 138.731 163.938 140.595ZM151.564 149.578L153.475 148.814L152.276 145.867L150.407 146.617C146.807 148.032 143.49 149.185 140.26 150.139L141.152 153.192C144.471 152.211 147.877 151.028 151.564 149.578ZM186.054 127.681L187.833 130.319C191.345 127.962 194.909 125.425 198.426 122.776L196.504 120.244C193.033 122.856 189.517 125.36 186.054 127.681ZM116.824 156.49C120.492 156.684 124.353 156.516 128.303 155.992L127.905 152.836C124.151 153.333 120.489 153.493 117.015 153.309C116.468 153.281 115.925 153.244 115.381 153.198L115.092 156.374C115.669 156.421 116.248 156.461 116.824 156.49ZM95.7709 168.802L98.9695 168.995C99.2698 164.675 99.1832 160.278 98.7138 155.924L95.5266 156.289C95.9758 160.458 96.0591 164.668 95.7709 168.802ZM206.574 112.281L208.615 114.72C211.831 112.054 215.133 109.199 218.432 106.231L216.289 103.877C213.025 106.816 209.755 109.643 206.574 112.281ZM225.692 95.1133L227.915 97.3903C231.024 94.3939 234.088 91.3487 237.107 88.2713L234.822 86.0556C231.822 89.113 228.779 92.1372 225.692 95.1133ZM90.8854 153.121C94.7898 153.277 98.6245 153.884 102.217 154.493L102.782 151.351C99.2487 150.752 95.1346 150.101 91.0387 149.939C90.6087 149.922 90.1755 149.909 89.7469 149.904L89.6722 153.09L90.8854 153.121ZM45.2456 174.629L48.2644 175.678C49.3974 172.52 51.7453 169.305 55.38 165.995L53.088 163.779C49.1401 167.372 46.5755 170.922 45.2456 174.629ZM66.7579 158.314C70.1115 156.666 73.6552 155.383 77.2897 154.498L76.5516 151.404C72.2387 152.451 68.0452 154.038 64.1237 156.085L65.5968 158.903L66.7579 158.314ZM93.1171 144.013L96.2009 143.117C94.9987 138.929 93.4301 134.83 91.5401 130.933L88.6499 132.336C90.4607 136.072 91.9651 140 93.1171 144.013Z" fill="#ECDCFD"/>
<path d="M350.894 12L311.447 104.555L282.615 84.8321L265.908 109.11L262.892 68.1553L228 46.8932L350.894 12Z" fill="#ECDCFD"/>
<path opacity="0.6" d="M276.225 80.4503L311.447 104.555L282.616 84.8314L265.908 109.109L262.893 68.1546L318.493 35.0418L276.225 80.4503Z" fill="#BC83F8"/>
<path d="M263.632 78.1927L318.493 35.0418L262.893 68.1547L263.632 78.1927Z" fill="#BC83F8"/>
</svg>
