<svg width="234" height="174" viewBox="0 0 234 174" fill="none" xmlns="http://www.w3.org/2000/svg">
<path d="M0 0L26.8517 63.0026L46.4773 49.577L57.8502 66.1029L59.9029 38.2251L83.6543 23.7519L0 0Z" fill="#C0D0F7"/>
<path opacity="0.4" d="M50.8273 46.5944L26.8514 63.0022L46.477 49.5766L57.8499 66.1025L59.9025 38.2247L22.0553 15.6847L50.8273 46.5944Z" fill="#5D86F4"/>
<path opacity="0.6" d="M59.3995 45.0576L22.0553 15.6847L59.9025 38.2247L59.3995 45.0576Z" fill="#5D86F4"/>
<path fill-rule="evenodd" clip-rule="evenodd" d="M86.3423 62.5667L83.6542 63.8115C82.0142 60.2791 80.0643 56.8724 77.8625 53.6845L80.2995 52C82.5972 55.3251 84.6308 58.8802 86.3423 62.5667ZM91.414 86.2605L94.309 85.6327C93.4437 81.6613 92.2355 77.7481 90.7193 74.0015L87.9732 75.1132C89.4259 78.705 90.5848 82.4552 91.414 86.2605ZM96.7659 110.149L93.8042 110.089C93.8791 106.195 93.6204 102.278 93.0393 98.4476L95.9682 98.0023C96.5753 101.998 96.8441 106.085 96.7659 110.149ZM45.7979 170.012C49.2816 172.326 53.3957 173.7 57.6968 173.988L57.8936 171.026C54.1062 170.773 50.4896 169.567 47.4358 167.54L45.7979 170.012ZM68.6959 168.905L70.0034 171.568C73.4248 169.885 76.7088 167.303 79.7626 163.898L77.5582 161.916C74.759 165.037 71.7772 167.388 68.6959 168.905ZM35 149.757C34.9985 153.417 35.8806 157.145 37.5534 160.536L40.2092 159.224C38.7376 156.239 37.961 152.966 37.9625 149.757C37.9625 149.497 37.9684 149.236 37.9788 148.97L38.0078 148.429L35.0535 148.212L35.0186 148.855C35.0059 149.155 35 149.457 35 149.757ZM152.163 156.893L152.177 159.86C156.105 159.84 160.144 159.68 164.182 159.382L163.965 156.423C159.994 156.716 156.023 156.874 152.163 156.893ZM138.268 159.324L140.161 159.47L140.367 156.508L138.515 156.368C134.96 156.071 131.746 155.671 128.685 155.141L128.181 158.065C131.327 158.609 134.627 159.021 138.268 159.324ZM175.719 155.18L176.119 158.121C179.984 157.593 183.965 156.934 187.954 156.164L187.392 153.252C183.457 154.011 179.53 154.661 175.719 155.18ZM106.706 150.814C109.662 152.486 112.926 153.935 116.408 155.122L117.362 152.315C114.054 151.186 110.958 149.812 108.157 148.228C107.716 147.98 107.282 147.726 106.85 147.463L105.319 150.004C105.778 150.281 106.241 150.553 106.706 150.814ZM84.2739 152.461L86.8429 153.939C88.8483 150.444 90.5649 146.726 91.9474 142.886L89.1609 141.881C87.837 145.557 86.1939 149.117 84.2739 152.461ZM198.965 150.727L199.663 153.61C203.408 152.701 207.303 151.668 211.24 150.541L210.424 147.687C206.527 148.805 202.67 149.827 198.965 150.727ZM221.77 144.217L222.684 147.039C226.476 145.809 230.25 144.52 234 143.185L233.01 140.389C229.284 141.715 225.536 142.995 221.77 144.217ZM86.6082 137.317C89.7764 139.054 92.7033 141.141 95.4289 143.13L97.1737 140.731C94.4934 138.775 91.3534 136.536 88.0293 134.715C87.6804 134.524 87.3269 134.335 86.9743 134.154L85.617 136.791L86.6082 137.317ZM40.0882 136.546L42.1597 138.667C44.382 136.488 47.6325 134.762 51.9872 133.486L50.9915 130.686C46.2627 132.071 42.6965 133.988 40.0882 136.546ZM64.5276 131.736C67.9735 131.736 71.4283 132.119 74.7961 132.874L75.4436 129.979C71.4483 129.081 67.332 128.685 63.2543 128.784L63.3271 131.751L64.5276 131.736ZM92.1597 130.607L95.0762 131.126C95.7845 127.124 96.1535 123.045 96.1743 119.003L93.2118 118.988C93.191 122.863 92.8384 126.772 92.1597 130.607Z" fill="#C0D0F7"/>
</svg>
