<?xml version="1.0" encoding="utf-8"?>
<!-- Generator: Adobe Illustrator 24.0.1, SVG Export Plug-In . SVG Version: 6.00 Build 0)  -->
<svg version="1.1" id="Layer_1" xmlns="http://www.w3.org/2000/svg" xmlns:xlink="http://www.w3.org/1999/xlink" x="0px" y="0px"
	 viewBox="0 0 108.6 108.6" style="enable-background:new 0 0 108.6 108.6;" xml:space="preserve">
<style type="text/css">
	.st0{display:none;}
	.st1{fill:#706792;}
</style>
<path class="st1" d="M93,4.5H40c-6.5,0-11.7,5.2-11.7,11.7v53c0,6.5,5.2,11.7,11.7,11.7h53c6.5,0,11.7-5.2,11.7-11.7v-53
	C104.6,9.7,99.4,4.5,93,4.5z"/>
<path class="st1" d="M43.6,86.1c-11.3,0-20.6-9.2-20.6-20.6V28.3h-3.2c-8.5,0-15.3,6.9-15.3,15.3v45.7c0,8.5,6.9,15.3,15.3,15.3
	h45.7c8.5,0,15.3-6.9,15.3-15.3v-3.2H43.6z"/>
</svg>
