<?xml version="1.0" encoding="utf-8"?>
<!-- Generator: Adobe Illustrator 24.0.1, SVG Export Plug-In . SVG Version: 6.00 Build 0)  -->
<svg version="1.1" id="Layer_1" xmlns="http://www.w3.org/2000/svg" xmlns:xlink="http://www.w3.org/1999/xlink" x="0px" y="0px"
	 viewBox="0 0 512 512" style="enable-background:new 0 0 512 512;" xml:space="preserve">
<style type="text/css">
	.st0{fill:#f00;}
</style>
<g>
	<g>
		<g>
			<path class="st0" d="M349.9,62.2c-10.8-4.7-23.4,0.2-28.1,11s0.2,23.4,11,28.1c69.4,30.3,115.2,99,115.2,176
				c0,106-86,192-192,192c-106,0-192-86-192-192c0-77,45.8-145.7,115.2-176c10.8-4.7,15.7-17.3,11-28.1c-4.7-10.8-17.3-15.7-28.1-11
				C77.3,99.3,21.3,183.2,21.3,277.3C21.3,406.9,126.4,512,256,512c129.6,0,234.7-105.1,234.7-234.7
				C490.7,183.2,434.7,99.2,349.9,62.2z"/>
			<path class="st0" d="M256,234.7c11.8,0,21.3-9.6,21.3-21.3v-192C277.3,9.6,267.8,0,256,0s-21.3,9.6-21.3,21.3v192
				C234.7,225.1,244.2,234.7,256,234.7z"/>
		</g>
	</g>
</g>
</svg>
