<?xml version="1.0" encoding="utf-8"?>
<!-- Generator: Adobe Illustrator 24.0.1, SVG Export Plug-In . SVG Version: 6.00 Build 0)  -->
<svg version="1.1" id="Layer_1" xmlns="http://www.w3.org/2000/svg" xmlns:xlink="http://www.w3.org/1999/xlink" x="0px" y="0px"
	 viewBox="0 0 32.4 29.7" style="enable-background:new 0 0 32.4 29.7;" xml:space="preserve">
<style type="text/css">
	.st0{fill:#9695A2;}
</style>
<path class="st0" d="M18.3,14.9L25,8.2c0.6-0.6,0.6-1.5,0-2.1c-0.6-0.6-1.5-0.6-2.1,0l-6.6,6.7L9.6,6C9,5.5,8,5.5,7.4,6
	c-0.6,0.6-0.6,1.5,0,2.1l6.7,6.7l-6.6,6.6c-0.6,0.6-0.6,1.5,0,2.1c0.3,0.3,0.7,0.4,1.1,0.4s0.8-0.1,1.1-0.4l6.6-6.6l6.6,6.6
	c0.3,0.3,0.7,0.4,1.1,0.4s0.8-0.1,1.1-0.4c0.6-0.6,0.6-1.5,0-2.1L18.3,14.9z"/>
</svg>
