<?xml version="1.0" encoding="utf-8"?>
<!-- Generator: Adobe Illustrator 24.0.1, SVG Export Plug-In . SVG Version: 6.00 Build 0)  -->
<svg version="1.1" xmlns="http://www.w3.org/2000/svg" xmlns:xlink="http://www.w3.org/1999/xlink" x="0px" y="0px"
	 viewBox="0 0 652 652" style="enable-background:new 0 0 652 652;" xml:space="preserve">
<style type="text/css">
	.st0{fill:#272627;}
	.st1{fill:#9DA8DB;}
</style>
<path class="st1" d="M636.4,206L523,98.6c-3.4-3.3-7.8-5.5-12.4-6.3L44.2,7.1C29.5,4.4,17.6,18.8,23.1,32.6L265.4,638
	c5.3,13.4,23.1,16.1,32.3,5L638,231.6C644.3,224,643.6,212.8,636.4,206z M470.7,121L328.8,238.5L105.2,54.3L470.7,121z M276.6,570.2
	L79.8,78.8l233,192.4L276.6,570.2z M312,570.6l34.7-283.9l234.8-42.2L312,570.6z M375.1,246.3l134.4-111.6l77.7,73.4L375.1,246.3z"
	/>
</svg>
