<?xml version="1.0" encoding="utf-8"?>
<!-- Generator: Adobe Illustrator 24.0.1, SVG Export Plug-In . SVG Version: 6.00 Build 0)  -->
<svg version="1.1" xmlns="http://www.w3.org/2000/svg" xmlns:xlink="http://www.w3.org/1999/xlink" x="0px" y="0px"
	 viewBox="0 0 30.9 25.6" enable-background="new 0 0 30.9 25.6" xml:space="preserve">
<g id="Layer_2">
</g>
<g id="Layer_1">
	<g>
		<g>
			<path  fill="#4b485d" d="M4.2,8.6C4.1,8.5,4,8.4,3.8,8.4S3.5,8.5,3.4,8.6C3.3,8.7,3.2,8.9,3.2,9s0.1,0.3,0.2,0.4c0.1,0.1,0.3,0.2,0.4,0.2
				s0.3-0.1,0.4-0.2C4.4,9.3,4.4,9.2,4.4,9S4.4,8.7,4.2,8.6z"/>
		</g>
	</g>
	<g>
		<g>
			<path fill="#4b485d" d="M27.4,5.4c0.3-0.5,0.5-1,0.5-1.6V3c0-1.5-1.2-2.8-2.8-2.8S22.4,1.5,22.4,3v0.8c0,0.6,0.2,1.2,0.5,1.6
				c-1.1,0.1-2,0.7-2.6,1.5c-0.6-0.8-1.5-1.4-2.6-1.5c0.3-0.5,0.5-1,0.5-1.6V3c0-1.5-1.2-2.8-2.8-2.8S12.7,1.5,12.7,3v0.8
				c0,0.6,0.2,1.2,0.5,1.6c-1.1,0.1-2,0.7-2.6,1.5C10.1,6,9.2,5.5,8.1,5.4c0.3-0.5,0.5-1,0.5-1.6V3c0-1.5-1.2-2.8-2.8-2.8
				S3.1,1.5,3.1,3v0.8c0,0.6,0.2,1.2,0.5,1.6C1.8,5.5,0.4,7,0.4,8.8v4.1c0,1.5,1.1,2.7,2.5,3v8.9c0,0.3,0.3,0.6,0.6,0.6h4.7
				c0.3,0,0.6-0.3,0.6-0.6v-8.9c0.8-0.2,1.4-0.6,1.9-1.2c0.4,0.6,1.1,1.1,1.9,1.2v8.9c0,0.3,0.3,0.6,0.6,0.6h4.7
				c0.3,0,0.6-0.3,0.6-0.6v-8.9c0.8-0.2,1.4-0.6,1.9-1.2c0.4,0.6,1.1,1.1,1.9,1.2v8.9c0,0.3,0.3,0.6,0.6,0.6h4.7
				c0.3,0,0.6-0.3,0.6-0.6v-3c0-0.3-0.3-0.6-0.6-0.6c-0.3,0-0.6,0.3-0.6,0.6v2.4h-1.2V17c0-0.3-0.3-0.6-0.6-0.6s-0.6,0.3-0.6,0.6
				v7.1h-1.2v-9.5h3.5V17c0,0.3,0.3,0.6,0.6,0.6c0.3,0,0.6-0.3,0.6-0.6v-1.1c1.4-0.3,2.5-1.5,2.5-3V8.8C30.6,7,29.2,5.5,27.4,5.4z
				 M4.3,3c0-0.9,0.7-1.6,1.6-1.6S7.5,2.1,7.5,3v0.8c0,0.9-0.7,1.6-1.6,1.6S4.3,4.6,4.3,3.8V3z M7.6,24.2H6.4V17
				c0-0.3-0.3-0.6-0.6-0.6S5.3,16.7,5.3,17v7.1H4.1v-9.5h3.5V24.2z M10.1,12.9c0,0.8-0.5,1.5-1.3,1.8V9c0-0.3-0.3-0.6-0.6-0.6
				C7.9,8.4,7.6,8.7,7.6,9v4.5H4.1v-2.3c0-0.3-0.3-0.6-0.6-0.6s-0.6,0.3-0.6,0.6v3.5c-0.8-0.2-1.3-1-1.3-1.8V8.8
				c0-1.2,1-2.2,2.2-2.2h4c1.2,0,2.2,1,2.2,2.2V12.9z M13.9,3c0-0.9,0.7-1.6,1.6-1.6s1.6,0.7,1.6,1.6v0.8c0,0.9-0.7,1.6-1.6,1.6
				c-0.9,0-1.6-0.7-1.6-1.6L13.9,3L13.9,3z M17.3,24.2h-1.2V17c0-0.3-0.3-0.6-0.6-0.6c-0.3,0-0.6,0.3-0.6,0.6v7.1h-1.2v-9.5h3.5
				V24.2z M19.8,12.9c0,0.8-0.5,1.5-1.3,1.8V9c0-0.3-0.3-0.6-0.6-0.6S17.3,8.7,17.3,9v4.5h-3.5V9c0-0.3-0.3-0.6-0.6-0.6
				c-0.3,0-0.6,0.3-0.6,0.6v5.7c-0.8-0.2-1.3-1-1.3-1.8V8.8c0-1.2,1-2.2,2.2-2.2h4c1.2,0,2.2,1,2.2,2.2V12.9z M23.6,3
				c0-0.9,0.7-1.6,1.6-1.6s1.6,0.7,1.6,1.6v0.8c0,0.9-0.7,1.6-1.6,1.6s-1.6-0.7-1.6-1.6V3z M29.4,12.9c0,0.8-0.5,1.5-1.3,1.8v-0.6V9
				c0-0.3-0.3-0.6-0.6-0.6c-0.3,0-0.6,0.3-0.6,0.6v4.5h-3.5V9c0-0.3-0.3-0.6-0.6-0.6c-0.3,0-0.6,0.3-0.6,0.6v5.7
				c-0.8-0.2-1.3-1-1.3-1.8V8.8c0-1.2,1-2.2,2.2-2.2h4c1.2,0,2.2,1,2.2,2.2V12.9z"/>
		</g>
	</g>
	<g>
		<g>
			<path fill="#4b485d" d="M28.3,19c-0.1-0.1-0.3-0.2-0.4-0.2c-0.2,0-0.3,0.1-0.4,0.2c-0.1,0.1-0.2,0.3-0.2,0.4c0,0.2,0.1,0.3,0.2,0.4
				c0.1,0.1,0.3,0.2,0.4,0.2s0.3-0.1,0.4-0.2c0.1-0.1,0.2-0.3,0.2-0.4S28.4,19.1,28.3,19z"/>
		</g>
	</g>
</g>
<g id="Layer_4">
</g>
<g id="Layer_3">
</g>
</svg>
